<svg width="16" height="16" viewBox="0 0 16 16" fill="none" xmlns="http://www.w3.org/2000/svg">
<path d="M7.78586 2.07895C7.81508 2.01992 7.86021 1.97024 7.91616 1.9355C7.97212 1.90076 8.03667 1.88235 8.10253 1.88235C8.16839 1.88235 8.23294 1.90076 8.28889 1.9355C8.34485 1.97024 8.38998 2.01992 8.41919 2.07895L9.95919 5.19828C10.0606 5.4036 10.2104 5.58122 10.3956 5.71592C10.5808 5.85062 10.7959 5.93836 11.0225 5.97162L14.4665 6.47562C14.5318 6.48507 14.5931 6.5126 14.6435 6.55508C14.6939 6.59757 14.7315 6.65332 14.7519 6.71602C14.7723 6.77873 14.7747 6.84589 14.7589 6.90991C14.7431 6.97393 14.7097 7.03225 14.6625 7.07828L12.1719 9.50362C12.0076 9.66369 11.8847 9.86127 11.8138 10.0794C11.7428 10.2975 11.7259 10.5295 11.7645 10.7556L12.3525 14.1823C12.364 14.2475 12.357 14.3147 12.3322 14.3761C12.3074 14.4375 12.2658 14.4907 12.2122 14.5296C12.1586 14.5685 12.0952 14.5916 12.0291 14.5962C11.963 14.6008 11.897 14.5867 11.8385 14.5556L8.75986 12.937C8.55701 12.8304 8.33131 12.7748 8.10219 12.7748C7.87307 12.7748 7.64738 12.8304 7.44453 12.937L4.36653 14.5556C4.30808 14.5866 4.24213 14.6005 4.17616 14.5958C4.1102 14.5911 4.04687 14.568 3.99339 14.5291C3.93991 14.4902 3.89842 14.4371 3.87363 14.3758C3.84885 14.3145 3.84177 14.2474 3.85319 14.1823L4.44053 10.7563C4.47933 10.5301 4.46252 10.2979 4.39155 10.0796C4.32059 9.86141 4.1976 9.66372 4.03319 9.50362L1.54253 7.07895C1.49492 7.03297 1.46119 6.97455 1.44517 6.91033C1.42915 6.84612 1.43149 6.7787 1.45191 6.71574C1.47234 6.65279 1.51004 6.59684 1.56071 6.55427C1.61139 6.5117 1.673 6.48422 1.73853 6.47495L5.18186 5.97162C5.4087 5.93862 5.62412 5.85099 5.80958 5.71628C5.99505 5.58156 6.145 5.4038 6.24653 5.19828L7.78586 2.07895Z" stroke="#FACC15" stroke-width="2" stroke-linecap="round" stroke-linejoin="round"/>
</svg>
